<mxfile host="app.diagrams.net" agent="Mozilla/5.0 (Windows NT 10.0; Win64; x64) AppleWebKit/537.36 (KHTML, like Gecko) Chrome/135.0.0.0 Safari/537.36" version="26.2.12">
  <diagram name="Page-1" id="ruMHbyUwUrJpFppGkPAT">
    <mxGraphModel grid="1" page="1" gridSize="10" guides="1" tooltips="1" connect="1" arrows="1" fold="1" pageScale="1" pageWidth="1100" pageHeight="850" math="0" shadow="0">
      <root>
        <mxCell id="0" />
        <mxCell id="1" parent="0" />
        <mxCell id="sT1aTnAqG-pdI71WQenC-19" value="" style="rounded=0;whiteSpace=wrap;html=1;" vertex="1" parent="1">
          <mxGeometry x="200" y="100" width="650" height="190" as="geometry" />
        </mxCell>
        <mxCell id="sT1aTnAqG-pdI71WQenC-12" value="" style="edgeStyle=orthogonalEdgeStyle;rounded=0;orthogonalLoop=1;jettySize=auto;html=1;fontFamily=Times New Roman;" edge="1" parent="1" source="sT1aTnAqG-pdI71WQenC-1" target="sT1aTnAqG-pdI71WQenC-6">
          <mxGeometry relative="1" as="geometry" />
        </mxCell>
        <mxCell id="sT1aTnAqG-pdI71WQenC-1" value="Conditional Tabular&lt;div&gt;Generator&lt;/div&gt;" style="rounded=1;whiteSpace=wrap;html=1;fontFamily=Times New Roman;" vertex="1" parent="1">
          <mxGeometry x="280" y="160" width="120" height="40" as="geometry" />
        </mxCell>
        <mxCell id="sT1aTnAqG-pdI71WQenC-3" value="&lt;font style=&quot;font-size: 10px;&quot;&gt;Random Noise&lt;/font&gt;" style="text;html=1;align=center;verticalAlign=middle;resizable=0;points=[];autosize=1;strokeColor=none;fillColor=none;fontFamily=Times New Roman;" vertex="1" parent="1">
          <mxGeometry x="195" y="150" width="80" height="30" as="geometry" />
        </mxCell>
        <mxCell id="sT1aTnAqG-pdI71WQenC-4" value="&lt;font style=&quot;font-size: 10px;&quot;&gt;Generator Loss&lt;/font&gt;" style="text;html=1;align=center;verticalAlign=middle;resizable=0;points=[];autosize=1;strokeColor=none;fillColor=none;fontFamily=Times New Roman;" vertex="1" parent="1">
          <mxGeometry x="345" y="120" width="80" height="30" as="geometry" />
        </mxCell>
        <mxCell id="sT1aTnAqG-pdI71WQenC-5" value="&lt;font style=&quot;font-size: 10px;&quot;&gt;Discrimantor Loss&lt;/font&gt;" style="text;html=1;align=center;verticalAlign=middle;resizable=0;points=[];autosize=1;strokeColor=none;fillColor=none;fontFamily=Times New Roman;" vertex="1" parent="1">
          <mxGeometry x="520" y="120" width="100" height="30" as="geometry" />
        </mxCell>
        <mxCell id="sT1aTnAqG-pdI71WQenC-13" value="" style="edgeStyle=orthogonalEdgeStyle;rounded=0;orthogonalLoop=1;jettySize=auto;html=1;fontFamily=Times New Roman;" edge="1" parent="1" source="sT1aTnAqG-pdI71WQenC-6" target="sT1aTnAqG-pdI71WQenC-9">
          <mxGeometry relative="1" as="geometry" />
        </mxCell>
        <mxCell id="sT1aTnAqG-pdI71WQenC-6" value="Fake Sample" style="rounded=1;whiteSpace=wrap;html=1;fontFamily=Times New Roman;" vertex="1" parent="1">
          <mxGeometry x="440" y="160" width="80" height="40" as="geometry" />
        </mxCell>
        <mxCell id="sT1aTnAqG-pdI71WQenC-16" style="edgeStyle=orthogonalEdgeStyle;rounded=0;orthogonalLoop=1;jettySize=auto;html=1;entryX=0.5;entryY=1;entryDx=0;entryDy=0;fontFamily=Times New Roman;" edge="1" parent="1" source="sT1aTnAqG-pdI71WQenC-7" target="sT1aTnAqG-pdI71WQenC-9">
          <mxGeometry relative="1" as="geometry" />
        </mxCell>
        <mxCell id="sT1aTnAqG-pdI71WQenC-7" value="Real Sample" style="rounded=1;whiteSpace=wrap;html=1;fontFamily=Times New Roman;" vertex="1" parent="1">
          <mxGeometry x="440" y="240" width="80" height="40" as="geometry" />
        </mxCell>
        <mxCell id="sT1aTnAqG-pdI71WQenC-15" value="" style="edgeStyle=orthogonalEdgeStyle;rounded=0;orthogonalLoop=1;jettySize=auto;html=1;fontFamily=Times New Roman;" edge="1" parent="1" source="sT1aTnAqG-pdI71WQenC-8" target="sT1aTnAqG-pdI71WQenC-7">
          <mxGeometry relative="1" as="geometry" />
        </mxCell>
        <mxCell id="sT1aTnAqG-pdI71WQenC-8" value="Real Data" style="rounded=1;whiteSpace=wrap;html=1;fontFamily=Times New Roman;" vertex="1" parent="1">
          <mxGeometry x="280" y="240" width="120" height="40" as="geometry" />
        </mxCell>
        <mxCell id="sT1aTnAqG-pdI71WQenC-14" value="" style="edgeStyle=orthogonalEdgeStyle;rounded=0;orthogonalLoop=1;jettySize=auto;html=1;fontFamily=Times New Roman;" edge="1" parent="1" source="sT1aTnAqG-pdI71WQenC-9" target="sT1aTnAqG-pdI71WQenC-10">
          <mxGeometry relative="1" as="geometry" />
        </mxCell>
        <mxCell id="sT1aTnAqG-pdI71WQenC-18" style="edgeStyle=orthogonalEdgeStyle;rounded=0;orthogonalLoop=1;jettySize=auto;html=1;exitX=0.5;exitY=0;exitDx=0;exitDy=0;entryX=0.5;entryY=0;entryDx=0;entryDy=0;fontFamily=Times New Roman;" edge="1" parent="1" target="sT1aTnAqG-pdI71WQenC-9">
          <mxGeometry relative="1" as="geometry">
            <mxPoint x="620" y="120" as="sourcePoint" />
          </mxGeometry>
        </mxCell>
        <mxCell id="sT1aTnAqG-pdI71WQenC-9" value="Discrimantor" style="rounded=1;whiteSpace=wrap;html=1;fontFamily=Times New Roman;" vertex="1" parent="1">
          <mxGeometry x="560" y="160" width="120" height="40" as="geometry" />
        </mxCell>
        <mxCell id="sT1aTnAqG-pdI71WQenC-17" style="edgeStyle=orthogonalEdgeStyle;rounded=0;orthogonalLoop=1;jettySize=auto;html=1;entryX=0.5;entryY=0;entryDx=0;entryDy=0;fontFamily=Times New Roman;" edge="1" parent="1" source="sT1aTnAqG-pdI71WQenC-10" target="sT1aTnAqG-pdI71WQenC-1">
          <mxGeometry relative="1" as="geometry">
            <Array as="points">
              <mxPoint x="780" y="120" />
              <mxPoint x="340" y="120" />
            </Array>
          </mxGeometry>
        </mxCell>
        <mxCell id="sT1aTnAqG-pdI71WQenC-10" value="Real/Fake" style="rounded=1;whiteSpace=wrap;html=1;fontFamily=Times New Roman;" vertex="1" parent="1">
          <mxGeometry x="720" y="160" width="120" height="40" as="geometry" />
        </mxCell>
        <mxCell id="sT1aTnAqG-pdI71WQenC-11" value="" style="endArrow=classic;html=1;rounded=0;fontFamily=Times New Roman;" edge="1" parent="1">
          <mxGeometry width="50" height="50" relative="1" as="geometry">
            <mxPoint x="210" y="180" as="sourcePoint" />
            <mxPoint x="260" y="180" as="targetPoint" />
          </mxGeometry>
        </mxCell>
      </root>
    </mxGraphModel>
  </diagram>
</mxfile>
